<svg xmlns="http://www.w3.org/2000/svg" fill="none" viewBox="0 0 512 512"><rect width="512" height="512" fill="#EE5700" rx="128" style="fill:#ee5700;fill:color(display-p3 .9333 .3412 0);fill-opacity:1"/><path fill="#FFFFF8" d="M165.375 384.47c-20.833 0-31.25-10.521-31.25-31.563V181.345c0-20.834 10.417-31.25 31.25-31.25H218.5l13.125-39.063c1.042-2.916 2.917-5 5.625-6.25 2.917-1.458 5.729-2.187 8.438-2.187 4.374 0 8.229.833 11.562 2.5 3.542 1.666 5.312 5 5.312 10 0 1.25-.624 3.541-1.874 6.875-1.042 3.125-2.396 6.666-4.063 10.625a1925.77 1925.77 0 0 0-4.687 10.625c-1.459 3.333-2.5 5.625-3.126 6.875h98.126c11.25 0 20 2.187 26.25 6.562 6.25 4.167 9.374 12.396 9.374 24.688v171.562c0 21.042-10.416 31.563-31.25 31.563H165.375Zm-1.875-132.5h189.688v-58.125c0-11.25-5.626-16.875-16.876-16.875H180.375c-11.25 0-16.875 5.416-16.875 16.25v58.75Zm16.875 105h155.937c11.25 0 16.876-5.625 16.876-16.875v-61.25H163.5v61.25c0 11.25 5.625 16.875 16.875 16.875Z" style="fill:#fffff8;fill:color(display-p3 1 1 .9725);fill-opacity:1"/></svg>